<svg width="1440" height="200" xmlns="http://www.w3.org/2000/svg" stroke="null" style="vector-effect: non-scaling-stroke;">
 <g stroke="null" id="Layer_1">
  <title stroke="null">Layer 1</title>
  <path stroke="#0a1a1a" stroke-width="5" d="m96,106.5c0,0 1.20268,0 1.20268,0c1.20268,0 3.60803,0 4.81071,0c3.60803,0 8.41874,0 13.22945,0c6.01338,0 10.82409,0 14.43212,0c2.40535,0 4.81071,0 7.21606,0c2.40535,0 4.81071,0 8.41874,0c2.40535,0 4.84176,-0.32037 7.21606,0c3.75409,0.50654 6.07772,0.5405 8.41874,1c2.61733,0.51374 6.04943,0.51127 10.82409,1c4.9216,0.50378 10.82409,2 16.83748,2c3.60803,0 7.21606,1 10.82409,1c2.40535,0 4.81071,0 8.41874,0c4.81071,0 8.30784,0.49622 13.22945,1c4.77467,0.48873 10.82409,0 15.6348,0c4.81071,0 10.76001,0.49874 19.24283,1c10.79686,0.638 22.85086,0 36.08031,0c13.22945,0 19.24283,0 26.45889,0c7.21606,0 12.02677,0 18.04015,0c7.21606,0 14.43212,0 21.64818,0c6.01338,0 14.43212,0 21.64818,0c7.21606,0 14.43212,0 26.45889,0c14.43212,0 28.98019,-1.12982 44.49904,-3c17.04165,-2.0537 25.35773,-3.52528 33.67495,-5c8.56309,-1.51831 15.62129,-3.06982 22.85086,-4c8.4042,-1.08131 16.939,-2.52528 25.25621,-4c8.56309,-1.51831 15.39719,-4.43288 22.85086,-7c7.02741,-2.4203 12.02677,-4 16.83748,-7c4.81071,-3 10.73454,-7.62061 13.22945,-14c2.26232,-5.7846 0.66087,-11.45049 -2.40535,-14c-3.06622,-2.54951 -8.30188,-4.22421 -10.82409,-5c-4.65076,-1.4305 -9.59418,-2.09544 -14.43212,-3c-5.98307,-1.11866 -10.82409,-1 -14.43212,-1c-4.81071,0 -7.21606,0 -10.82409,0c-1.20268,0 -3.77514,-0.23175 -3.60803,2c0.26944,3.59858 16.1257,8.33646 36.08031,19c12.34986,6.59963 25.9049,13.18117 37.28298,20c8.99519,5.39076 14.47404,8.95846 21.64818,14c8.46865,5.95125 16.52917,13.17906 21.64818,19c4.54549,5.16872 7.81285,8.90779 8.41874,13c0.58776,3.97003 -1.51149,9.91751 -7.21606,13c-14.04586,7.58977 -39.66345,9.21834 -67.3499,9c-19.2795,-0.15204 -29.48302,-3.10437 -38.48566,-8c-7.86122,-4.27493 -13.48545,-9.07741 -16.83748,-14c-2.44319,-3.58792 -3.53345,-9.92921 -3.60803,-17c-0.08504,-8.06195 4.22636,-16.44762 12.02677,-23c8.99387,-7.5549 22.18485,-15.14378 38.48566,-21c17.45625,-6.27132 51.59237,-13.49846 91.40344,-15c40.84902,-1.54069 76.97132,0 91.40344,0c15.6348,0 26.41999,-0.11689 34.87763,-2c9.58001,-2.133 16.00212,-3.36167 21.64818,-6c5.24226,-2.44963 10.64506,-5.48531 13.22945,-10c2.13111,-3.72291 3.60803,-6.8769 3.60803,-11c0,-4.12311 -2.3779,-9.45754 -12.02677,-14c-6.61905,-3.1161 -26.51218,-7.07225 -42.09369,-6c-14.58136,1.00342 -20.89211,4.74675 -24.05354,9c-4.24152,5.70634 -6.41587,13.18143 -4.81071,18c1.87192,5.61938 13.41391,16.08679 30.06692,26c17.10621,10.18301 39.91031,17.59245 58.93117,25c17.04764,6.63908 33.78851,11.79726 46.9044,17c14.56322,5.77686 30.89567,12.4638 37.28298,20c5.5855,6.59021 -2.16642,15.42482 -12.02677,19c-18.83814,6.83038 -42.15887,12.76357 -63.74187,17c-14.47837,2.84189 -34.74954,6.87532 -60.13384,9c-20.37783,1.70563 -45.70172,2 -62.5392,2c-14.43212,0 -29.31114,-1.25131 -39.68834,-6c-7.59799,-3.47687 -16.42273,-10.69196 -12.02677,-20c8.39855,-17.78299 57.06343,-31.98302 109.44359,-36c19.1615,-1.46947 40.89101,-1 67.3499,-1c22.85086,0 38.48566,0 43.29637,0c6.01338,0 20.60546,-0.5695 25.25621,-2c2.52222,-0.77579 2.75961,-3.34619 0,-5c-8.7266,-5.2298 -25.3189,-9.80946 -43.29637,-14c-20.52038,-4.78329 -51.32995,-13.24207 -92.60612,-17c-27.5232,-2.50581 -48.56483,-2.91341 -54.12046,-1c-4.71411,1.62359 -6.01338,8 -6.01338,12c0,5 2.44734,12.98069 8.41874,22c7.2673,10.97666 14.25852,21.09791 21.64818,30c5.87685,7.0797 10.51909,14.16119 14.43212,19c3.35537,4.14925 8.84603,7.412 8.41874,11c-0.16758,1.40733 -12.9,-4.39093 -26.45889,-12c-18.80893,-10.5553 -35.08588,-18.75491 -50.51243,-28c-19.51326,-11.69421 -36.55069,-23.6236 -48.10707,-34c-7.53383,-6.76459 -15.11868,-14.64457 -21.64818,-24c-4.04942,-5.80199 -7.20035,-9.75711 -8.41874,-16c-0.77061,-3.94835 -0.73736,-6.91761 2.40535,-8c3.33342,-1.14805 14.66988,-2.06508 26.45889,5c18.64002,11.17088 24.56642,29.91573 26.45889,39c1.65486,7.94397 1.20268,15 1.20268,23c0,5 -1.64495,9.56393 -6.01338,13c-6.30025,4.95558 -15.57864,6.49903 -25.25621,7c-10.80317,0.55923 -22.96647,-1.7752 -37.28298,-7c-15.76774,-5.75445 -31.99239,-13.83069 -63.74187,-26c-30.83452,-11.81863 -54.00818,-17.99806 -73.36329,-19c-6.00175,-0.31068 -12.76501,0.297 -15.6348,3c-5.3393,5.02899 -6.01338,12 -6.01338,17c0,7 -1.13364,15.15543 1.20268,24c1.63173,6.17731 5.87134,13.07278 9.62141,18c2.31885,3.04672 4.45649,6.34619 7.21606,8c2.18165,1.30745 5.63854,-0.14355 3.60803,-10c-3.66059,-17.76896 -12.32208,-26.88946 -19.24283,-40c-6.28374,-11.90384 -12.99264,-24.71896 -18.04015,-38c-2.98834,-7.86295 -4.80164,-13.81557 -6.01338,-22c-1.17559,-7.94006 -1.3816,-14.13375 0,-19c1.23575,-4.3525 8.35465,-6.49874 16.83748,-7c9.59723,-0.56711 33.7158,3.92452 68.55258,17c39.73517,14.91401 79.05049,30.68867 117.86233,43c16.70476,5.29884 31.2696,9 45.70172,12c9.62141,2 16.7234,3.48873 27.66157,5c10.74342,1.48436 21.65912,1.92987 31.2696,3c8.42894,0.93857 14.34286,2.49755 20.44551,3c3.59049,0.29562 8.19199,1.13464 10.82409,4c4.61706,5.02617 4.20878,14.96599 4.81071,26c0.81744,14.98459 0,22 0,29c0,5 0.62806,9.38074 3.60803,12c4.13251,3.63226 10.27054,6.46873 19.24283,8c8.24682,1.40746 19.61786,2.08467 30.06692,-1c12.67142,-3.74071 24.90526,-10.17403 34.87763,-18c9.29748,-7.29636 20.17912,-18.3723 26.45889,-36c5.56047,-15.60846 4.16878,-32.0966 2.40535,-38c-1.83352,-6.13806 -4.55797,-11.07844 -6.01338,-14c-1.02915,-2.06586 -2.40535,-4 -3.60803,-6c-1.20268,-2 -1.69259,-3.86065 0,-4c4.31522,-0.35528 10.71736,5.18271 20.44551,9c21.42408,8.40671 53.01387,16.6889 81.78203,23c21.72445,4.76587 30.34836,7.49294 36.08031,10c3.83772,1.67856 7.63242,4.70546 9.62141,7c1.57242,1.814 2.17868,4.52217 -1.20268,8c-4.84139,4.97949 -14.15619,8.488 -26.45889,13c-15.32664,5.62102 -32.13351,11.94173 -50.51243,16c-17.7811,3.92627 -39.06498,10.36305 -62.5392,6c-22.05199,-4.09872 -28.26195,-22.95847 -28.86424,-32c-0.79807,-11.98164 0.45321,-23.18923 4.81071,-34c4.11614,-10.21207 10.58002,-18.15632 18.04015,-26c5.82657,-6.12611 13.6135,-13.90024 22.85086,-19c8.96157,-4.9475 19.021,-7.99245 28.86424,-9c9.54933,-0.97747 22.26494,-2.48862 40.89101,2c21.70309,5.23014 35.38875,16.03633 54.12046,24c8.15514,3.4671 16.67143,6.47545 24.05354,8c7.09986,1.46626 13.22945,2 18.04015,2c3.60803,0 7.37087,0.86935 10.82409,0c4.15028,-1.04483 5.82965,-4.04132 7.21606,-8c1.06335,-3.03617 2.41101,-8.31159 0,-13c-5.77173,-11.22359 -18.51736,-19.05307 -32.47227,-25c-11.52739,-4.91244 -21.71028,-4.64073 -26.45889,-4c-3.75411,0.50654 -6.66449,3.70267 -8.41874,7c-2.0061,3.77064 -2.40535,9.93774 -2.40535,18c0,8.06226 3.13192,16.18657 8.41874,25c5.52663,9.21323 13.6963,18.77711 20.44551,29c7.76462,11.7609 13.26747,20.98855 18.04015,32c6.06176,13.98558 8.83245,28.08241 7.21606,39c-0.60589,4.09221 -4.0503,8.56392 -8.41874,12c-3.15013,2.47778 -7.06697,5.34315 -13.22945,7c-4.71822,1.26855 -11.93751,2.49756 -18.04015,3c-5.9841,0.49269 -16.11678,2.32454 -26.45889,-1c-9.04393,-2.90723 -18.1852,-7.86206 -26.45889,-14c-17.1449,-12.71919 -33.67495,-27 -45.70172,-40c-12.02677,-13 -16.38075,-18.66891 -18.04015,-22c-2.34678,-4.71088 -2.40535,-8 -2.40535,-9c0,-3 -0.24415,-5.2565 1.20268,-6c3.2352,-1.66251 10.82409,-1 19.24283,-1c9.62141,0 20.35147,3.17573 33.67495,8c14.33457,5.19038 40.43311,14.13461 60.13384,19c21.2584,5.25008 37.28298,5 44.49904,5c4.81071,0 9.62141,-2 14.43212,-6c2.40535,-2 4.81071,-6 6.01338,-11c1.20268,-5 3.00053,-11.02045 2.40535,-17c-0.60339,-6.06203 -4.72526,-14.92893 -13.22945,-22c-8.50418,-7.07107 -18.6605,-13.12234 -39.68834,-20c-29.37764,-9.60867 -58.86657,-14.38285 -82.9847,-17c-10.79913,-1.17185 -21.64818,-1 -30.06692,-1c-7.21606,0 -12.21836,-0.38935 -15.6348,1c-3.89534,1.5841 -9.22767,6.70848 -12.02677,13c-3.44081,7.734 -5.41131,16.9626 -6.01338,27c-0.77883,12.98386 0.67783,26.01222 0,39c-1.20378,23.06508 -2.67402,41.132 -7.21606,61c-2.99642,13.10696 -5.15777,14.86829 -7.21606,19c-1.45541,2.92157 -2.19336,5.48625 -4.81071,6c-2.34098,0.4595 -4.84756,0.08769 -8.41874,-1c-6.08143,-1.85226 -11.80787,-5.22688 -19.24283,-10c-8.18898,-5.25719 -18.1797,-10.83707 -30.06692,-18c-9.73835,-5.8681 -28.4989,-14.84814 -54.12046,-22c-28.5036,-7.95633 -47.90925,-9.99399 -58.93117,-11c-7.17297,-0.65469 -12.02677,-1 -18.04015,-1c-3.60803,0 -4.81071,0 -6.01338,0c0,0 2.41159,0.24936 9.62141,0c14.46963,-0.50043 34.94193,-2.80101 57.72849,-8c25.3305,-5.77943 53.1115,-12.56451 82.9847,-22c36.32702,-11.47393 78.66486,-27.33646 98.6195,-38c12.34983,-6.59963 17.18454,-9.86829 19.24283,-14c1.45541,-2.92156 1.72312,-4.28326 0,-6c-3.85306,-3.83876 -11.96166,-6.14859 -21.64818,-9c-10.75546,-3.16607 -22.61046,-6.86398 -36.08031,-9c-10.69791,-1.69645 -20.24768,-2.99399 -31.2696,-4c-9.56394,-0.87293 -26.4768,-1.59776 -40.89101,-1c-12.07177,0.50062 -21.91604,6.72399 -26.45889,10c-3.85475,2.77979 -6.93778,6.6129 -9.62141,12c-1.89761,3.80925 -4.26824,7.81402 -6.01338,13c-1.97123,5.85778 -3.60803,13 -4.81071,19c-1.20268,6 -2.583,11.94341 -4.81071,17c-1.30816,2.96933 -1.53976,7.67287 -7.21606,12c-6.3926,4.87315 -15.69785,5.85529 -24.05354,5c-4.92162,-0.50378 -9.89669,-2.72962 -15.6348,-7c-5.06939,-3.77267 -9.80955,-6.84944 -14.43212,-11c-7.53383,-6.76459 -14.4805,-11.95021 -20.44551,-16c-7.27581,-4.93976 -13.38822,-8.75532 -18.04015,-11c-3.75051,-1.80972 -7.21606,-3 -12.02677,-4c-4.81071,-1 -9.0189,1.95332 -9.62141,10c-0.52309,6.98647 -0.70301,24.24428 3.60803,32c5.19484,9.34574 10.69152,16.05703 13.22945,20c4.5753,7.10829 10.5304,14.1579 16.83748,22c5.75103,7.15077 10.68205,13.07278 14.43212,18c2.31881,3.04672 5.95943,6.54915 7.21606,10c0.69706,1.91418 1.75447,2.69344 2.40535,4c0.46025,0.92387 2.15027,-2.16907 10.82409,-11c7.01376,-7.14076 17.28606,-16.66908 30.06692,-26c14.82249,-10.82146 32.07427,-22.44565 48.10707,-32c17.62284,-10.50188 36.52,-20.92207 55.32313,-31c18.557,-9.946 32.34418,-16.19669 43.29637,-21c9.51461,-4.17285 15.89047,-6.67121 21.64818,-10c6.32264,-3.65543 8.41874,-5 9.62141,-5c0,0 -1.20268,0 -1.20268,0c-1.20268,0 -1.7875,0.82375 -2.40535,3c-0.82897,2.91975 -0.57095,8.08442 1.20268,15c1.82604,7.12003 6.73915,16.18903 13.22945,27c6.73041,11.21084 15.36467,22.12553 22.85086,33c10.45134,15.18166 22.85137,28.50789 31.2696,44c4.23095,7.78616 5.76065,12.07843 7.21606,15c1.02915,2.06586 1.20268,3 2.40535,4c0,0 0,0 1.20268,0c1.20268,0 3.83177,0.30745 6.01338,-1c2.75961,-1.65381 5.81937,-3.17049 9.62141,-6c5.73811,-4.27039 13.38852,-9.61681 15.6348,-17c3.25789,-10.70804 1.20268,-19 1.20268,-28c0,-6 -3.05947,-12.2391 -10.82409,-24c-3.3746,-5.11144 -8.09355,-11.22885 -13.22945,-16c-5.67161,-5.26885 -13.09541,-9.19409 -19.24283,-12c-7.07226,-3.22805 -13.07104,-5.28859 -18.04015,-7c-3.5137,-1.21015 -7.14801,-2.14773 -13.22945,-4c-3.57118,-1.08769 -4.81071,-1 -4.81071,-1c1.20268,0 2.62909,1.69255 4.81071,3c2.75961,1.65381 5.67542,4.31021 9.62141,7c3.35346,2.28588 8.41874,4 13.22945,6c4.81071,2 9.44664,4.4107 15.6348,6c10.59426,2.72093 24.04664,4.07102 38.48566,5c16.83006,1.08282 26.45889,2 36.08031,2c8.41874,0 18.04015,0 25.25621,0c7.21606,0 16.83748,0 25.25621,0c9.62141,0 18.04015,0 27.66157,0c8.41874,0 18.04015,0 26.45889,0c7.21606,0 21.65883,0.53948 36.08031,1c15.66945,0.50037 31.20559,2.49874 39.68834,3c11.99653,0.70889 24.00362,0.49924 34.87763,1c10.8075,0.4977 21.64818,0 32.47227,0c7.21606,0 15.6348,0 22.85086,0c7.21606,0 12.02677,0 15.6348,-1l2.40535,0l2.40535,0" id="svg_1" fill="none"/>
 </g>
</svg>