<svg width="1440" height="200" xmlns="http://www.w3.org/2000/svg" stroke="null">
 <g id="Layer_1">
  <title>Layer 1</title>
  <path d="m95.5,139.5c0,0 1,0 2,0c0,0 1.58578,-0.41422 3,1c0.70711,0.70711 0.69344,1.4588 2,2c0.92388,0.38269 1.69344,0.4588 3,1c0.92388,0.38269 0.82375,0.48625 3,1c0.97325,0.22975 2.02675,0.77025 3,1c2.17625,0.51375 3.02675,1.77025 4,2c2.17625,0.51375 2.87856,2.49345 6,3c0.98709,0.16019 3.02675,0.77025 4,1c2.17625,0.51375 2.82375,1.48625 5,2c1.9465,0.4595 2.82375,1.48625 5,2c0.97325,0.22975 1.82375,0.48625 4,1c0.97325,0.22975 1.82375,0.48625 4,1c1.9465,0.4595 4,1 5,1c3,0 6.01291,0.83981 7,1c3.12144,0.50655 6.82375,1.48625 9,2c1.9465,0.4595 3.87856,1.49345 7,2c1.97418,0.32036 5.08025,0.31075 8,1c2.17625,0.51375 4.87856,1.49345 8,2c0.98709,0.16019 3.87856,0.49345 7,1c1.97418,0.32036 5,0 8,0c3,0 5,1 8,1c3,0 6,0 11,0c2,0 5,0 7,0c2,0 5,0 7,0c3,0 6,0 9,0c3,0 5,0 8,0c2,0 5,0 7,0c3,0 7,0 10,-1c3,-1 6.96384,-1.11586 10,-2c3.95868,-1.15277 7.0535,-1.5405 9,-2c2.17624,-0.51375 4.76108,-2.41589 8,-4c2.84073,-1.38936 4.88153,-2.19028 8,-4c1.93399,-1.12234 5.21167,-2.71413 8,-5c2.18735,-1.7932 3.41885,-3.41885 5,-5c1.58115,-1.58115 4,-3 6,-5c2,-2 3.186,-3.69255 5,-5c1.14728,-0.8269 3.37134,-2.74675 6,-7c1.17557,-1.90211 2.20682,-3.81266 4,-6c2.28589,-2.78832 2.78986,-5.07844 4,-8c0.85571,-2.06586 1.78986,-4.07844 3,-7c0.85571,-2.06586 1.48627,-2.82375 2,-5c0.4595,-1.9465 0.67963,-4.02583 1,-6c0.50653,-3.12144 0.78986,-6.07844 2,-9c0.85571,-2.06586 0.75256,-4.01022 1,-7c0.50171,-6.06203 1,-8 1,-10c0,-2 0,-5 0,-7c0,-2 0,-4 0,-6c0,-1 0,-2 0,-4c0,-1 0.38269,-2.07612 0,-3c-0.5412,-1.30656 -1.4588,-2.69344 -2,-4c-0.38269,-0.92388 -0.69254,-2.18601 -2,-4c-0.8269,-1.14727 -1,-2 -2,-4c0,0 -1.4588,-0.69344 -2,-2c-0.76538,-1.84776 -1,-3 -2,-4c-2,-2 -3.29291,-2.29289 -4,-3c-0.70709,-0.70711 -0.69345,-1.4588 -2,-2c-0.92389,-0.38268 -2,-1 -3,-1c-1,0 -2.69345,-0.4588 -4,-1c-1.84775,-0.76537 -5,0 -7,0c-1,0 -3,-1 -6,-1c-2,0 -4,0 -6,0c-2,0 -4,0 -5,0c-2,0 -3,0 -4,0c-1,0 -2,1 -3,1c-1,0 -1.69345,0.4588 -3,1c-0.92389,0.38268 -2.07611,0.61732 -3,1c-1.30655,0.5412 -1.69345,1.4588 -3,2c-0.92389,0.38268 -2.07611,0.61732 -3,1c-1.30655,0.54119 -2.07611,1.61732 -3,2c-1.30655,0.54119 -1.29291,1.29289 -2,2c-0.70709,0.70711 -1.69345,1.45881 -3,2c-0.92389,0.38268 -0.69345,1.45881 -2,2c-0.92389,0.38268 -1,1 -2,2c0,0 -2,2 -2,2c-1,1 -1,2 -2,3c-1,1 -2.48627,1.82375 -3,4c-0.22977,0.97325 -1,2 -2,3c-1,1 -1,2 -2,3c-1,1 -1,2 -2,3c-1,1 -1.61731,2.07612 -2,3c-0.5412,1.30656 -1.77023,2.02675 -2,3c-0.51373,2.17625 -0.69254,2.186 -2,4c-0.8269,1.14727 -1.48625,1.82375 -2,4c-0.4595,1.9465 -0.77025,3.02675 -1,4c-0.51375,2.17625 -0.61731,4.07612 -1,5c-0.5412,1.30656 -0.61731,2.07612 -1,3c-0.5412,1.30656 -1,3 -1,4c0,1 0,2 0,3c0,1 -1,3 -1,3c0,1 0,2 0,3c0,1 0,2 0,3c0,1 0,2 0,3c0,1 -0.38269,1.07612 0,2c0.5412,1.30656 1,1 1,2c0,1 1,2 1,2c0,1 1,1 1,2c0,1 1,1 1,2c0,0 1,1 1,1c1,1 1.4588,0.69344 2,2c0.38269,0.92388 0,1 1,2c0,0 0.29291,1.29289 1,2c0.70709,0.70711 1,1 2,2c1,1 1.4588,0.69344 2,2c0.38269,0.92388 1.29291,1.29289 2,2c0.70709,0.70711 1.29291,1.29289 2,2c0.70709,0.70711 1,1 2,2c1,1 1,1 2,2c1,1 1.29291,0.29289 2,1c0.70709,0.70711 1.4588,0.69344 2,2c0.38269,0.92387 0.69345,1.4588 2,2c0.92389,0.38269 2,1 3,2c1,1 1.69345,1.4588 3,2c0.92389,0.38269 1.07611,0.61731 2,1c1.30655,0.5412 2,1 3,2c1,1 2.07611,0.61731 3,1c1.30655,0.5412 2.07611,1.61731 3,2c1.30655,0.5412 1.69345,2.4588 3,3c0.92389,0.38269 2.07611,0.61731 3,1c1.30655,0.5412 1.07611,0.61731 2,1c1.30655,0.5412 0.69345,1.4588 2,2c0.92389,0.38269 1,0 2,1c0,0 1,0 2,0c0,0 1,1 2,1c0,0 1.29291,-0.70711 2,0c0.70709,0.70711 1,1 1,1c1,0 2,0 3,1c0,0 1,0 2,0c0,0 1,1 2,1c1,0 1,1 2,1c1,0 1.69345,0.4588 3,1c0.92389,0.38269 1,0 2,0c1,0 1.69345,0.4588 3,1c0.92389,0.38269 2,0 3,0c0,0 2,1 2,1c1,0 1,0 2,1c0,0 0,0 1,0c0,0 1,0 1,0l0,0l0,0l0,1" id="svg_1" stroke-width="5" stroke="#fff7e5" fill="none"/>
  <path d="m337.5,163.5c0,0 0,0 1,0c1,0 1,0 2,0c0,0 1,0 1,0c1,0 1,0 2,0c1,0 2,0 2,0c1,0 2,0 3,0c1,0 2,0 3,0c2,0 3,0 4,0c1,0 2,0 3,0c1,0 2,0 4,0c1,0 2.29291,-0.70711 3,0c0.70709,0.70711 1,1 2,1c1,0 2,0 3,0c1,0 2,1 3,1c0,0 3,0 3,0c1,0 3,0 4,0c1,0 3,0 4,0c2,0 3,0 5,0c2,0 3,0 4,0c2,0 4,0 5,0c2,0 4,0 6,0c2,0 4,0 7,0c1,0 3,0 5,0c2,0 4,0 5,0c2,0 4,0 5,0c2,0 3,0 4,0c1,0 2,0 4,0c1,0 2,0 4,0c1,0 3.07611,0.38269 4,0c1.30655,-0.5412 3,-1 4,-1c2,0 3,-1 5,-1c1,0 2.82376,-1.48625 5,-2c1.9465,-0.4595 4.01291,-0.83981 5,-1c3.12143,-0.50655 4.0535,-1.5405 6,-2c2.17624,-0.51375 3.82376,-2.48625 6,-3c1.9465,-0.4595 3.82376,-1.48625 6,-2c1.9465,-0.4595 5,-1 7,-2c2,-1 3,-1 5,-2c4,-2 6,-3 8,-4c2,-1 3,-2 5,-3c2,-1 3,-2 4,-3c1,-1 1.85272,-2.1731 3,-3c1.81396,-1.30745 3,-2 4,-3c1,-1 1.61731,-2.07613 2,-3c1.0824,-2.61313 2,-2 3,-3c1,-1 1.4588,-1.69344 2,-3c0.38269,-0.92388 0.77026,-2.02675 1,-3c0.51373,-2.17625 2.4588,-2.69344 3,-4c0.38269,-0.92388 0.69257,-2.186 2,-4c0.8269,-1.14727 1.4588,-2.69344 2,-4c0.76538,-1.84776 0.61731,-3.07612 1,-4c0.5412,-1.30656 1.4588,-2.69344 2,-4c0.38269,-0.92388 -0.38269,-2.07612 0,-3c0.5412,-1.30656 1,-2 1,-3c0,-1 0,-2 0,-2c0,-1 0,-2 0,-3c0,-1 0,-2 0,-3c0,-1 0,-2 0,-3c0,-1 0.22974,-2.02675 0,-3c-0.51373,-2.17625 -1,-3 -1,-3c-1,-1 -1.4588,-1.69344 -2,-3c-0.38269,-0.92388 -1,-2 -1,-2c0,-1 -1,-2 -1,-2c-1,-1 -1.4588,-0.69344 -2,-2c-0.38269,-0.92388 -0.29291,-1.29289 -1,-2c-0.70709,-0.70711 -1.29291,-1.29289 -2,-2c-0.70709,-0.70711 -2.29291,-0.29289 -3,-1c-0.70709,-0.70711 -1,-1 -1,-1c-1,0 -2,-1 -2,-1c-1,0 -2,0 -3,0c-1,0 -1,-1 -2,-1c0,0 -1,0 -2,0c-1,0 -2,0 -2,0c-1,0 -1,0 -2,0c-1,0 -1,0 -2,0c0,0 -1,0 -1,0c-1,0 -1,0 -2,1c0,0 -1,0 -1,0c0,0 -0.29291,0.29289 -1,1c-0.70709,0.70711 -1,0 -1,0c-1,0 -1,1 -2,1c0,0 -1,1 -1,1c0,0 -1,0 -1,1c0,0 -0.29291,0.29289 -1,1c-0.70709,0.70711 -1,0 -2,1c0,0 -0.29291,-0.70711 -1,0c-0.70709,0.70711 0,1 -1,2c0,0 -1,1 -1,1c-1,1 -1,2 -2,3c-1,1 -1.4588,0.69344 -2,2c-0.38269,0.92388 -0.4588,1.69344 -1,3c-0.38269,0.92388 -0.61731,2.07612 -1,3c-0.5412,1.30656 -1,2 -1,3c0,1 -1,2 -1,4c0,1 -1,2 -1,3c0,1 0,2 0,3c0,1 0,3 0,4c0,1 0,2 0,3c0,1 0,2 0,3c0,1 0,3 0,4c0,1 -0.38269,2.07612 0,3c0.5412,1.30656 0.77023,2.02675 1,3c0.51373,2.17625 0.61731,3.07612 1,4c0.5412,1.30656 1,3 2,5c0,0 0.4588,0.69344 1,2c0.38269,0.92388 1,2 1,2c1,1 1.29291,1.29289 2,2c0.70709,0.70711 1,1 1,2c0,0 1.29291,0.29289 2,1c0.70709,0.70711 0.29291,1.29289 1,2c0.70709,0.70711 2.07611,0.61731 3,1c1.30655,0.5412 2.07611,1.61731 3,2c1.30655,0.5412 2,2 2,2c1,1 1.69345,1.4588 3,2c0.92389,0.38269 2.07611,0.61731 3,1c1.30655,0.5412 2.07611,0.61731 3,1c1.30655,0.5412 1.69345,1.4588 3,2c0.92389,0.38269 1.69342,0.4588 3,1c0.92389,0.38269 1.82373,0.48625 4,1c0.97327,0.22975 1.69342,0.4588 3,1c0.92389,0.38269 2.07611,0.61731 3,1c1.30658,0.5412 1.69342,1.4588 3,2c0.92389,0.38269 2,1 3,1c1,0 2,1 4,1c1,0 3.05353,0.5405 5,1c2.17627,0.51375 4,1 6,1c2,0 5.05353,0.5405 7,1c2.17627,0.51375 4.05353,0.5405 6,1c2.17627,0.51375 3,1 5,1c2,0 4.15222,-0.76537 6,0c1.30658,0.5412 3,1 4,1c1,0 3,0 5,0c2,0 4,0 6,0c2,0 4,0 7,0c1,0 3,1 5,1c2,0 4,0 6,0c2,0 4,0 6,0c1,0 3,0 4,0c1,0 3,0 5,0c1,0 3,0 4,0c2,0 3,0 5,0c2,0 5,0 6,0c2,0 4,0 6,0c3,0 5,0 7,0c2,0 5,0 8,0c1,0 3,0 5,0c2,0 4,0 6,0c2,0 4,0 6,0c1,0 3,0 6,0c1,0 2,0 3,0c2,0 3,0 4,0c2,0 2.69342,-0.4588 4,-1c1.84778,-0.76537 3,0 4,0c1,0 1.69342,-0.4588 3,-1c0.92389,-0.38269 2,0 3,0c1,0 2,-1 3,-1c1,0 2,0 3,0c1,0 0.69342,-0.4588 2,-1c0.92389,-0.38269 1,0 2,0c0,0 1,0 1,0c0,0 0,0 0,0l0,0l0,0" id="svg_2" stroke-width="5" stroke="#fff7e5" fill="none"/>
  <path d="m709.5,157.5c1,0 1,0 1,0c2,0 2.69342,-0.4588 4,-1c0.92389,-0.38269 2,0 3,0c1,0 3,-1 4,-1c1,0 2.82373,-0.48625 5,-1c1.94647,-0.4595 4.02673,-0.77025 5,-1c2.17627,-0.51375 3.69342,-1.4588 5,-2c1.84778,-0.76537 3,-1 5,-1c1,0 1.02673,-0.77025 2,-1c2.17627,-0.51375 1.85272,-1.1731 3,-2c1.81396,-1.30745 2.85272,-2.1731 4,-3c1.81396,-1.30745 4.31,-2.33749 7,-4c1.203,-0.7435 3,-3 4,-4c1,-1 2,-1 4,-3c1,-1 2,-2 3,-3c1,-1 1.69342,-2.4588 3,-3c0.92389,-0.38268 0.0979,-1.82443 2,-3c0.85065,-0.52573 1,-1 2,-2c1,-1 1.29291,-1.29289 2,-2c0.70709,-0.70711 1,-2 1,-3c0,0 1,-1 1,-2c0,0 0.29291,-0.29289 1,-1c0.70709,-0.70711 0,-2 0,-2c0,-1 0,-2 0,-3c0,0 -0.38269,-2.07612 0,-3c0.5412,-1.30656 1,-2 1,-3c0,-1 0,-3 0,-4c0,-1 0,-2 0,-3c0,-1 0,-1 0,-2c0,-1 0,-3 0,-4c0,-1 0,-3 0,-4c0,-1 0,-3 0,-6c0,-1 -1,-2 -1,-3c0,-2 -1,-3 -1,-5c0,-1 -1,-3 -1,-4c0,-2 -1,-3 -1,-4c0,-1 -0.77026,-3.02675 -1,-4c-0.51373,-2.17625 -1.48627,-2.82375 -2,-5c-0.22974,-0.97325 -0.83984,-2.01291 -1,-3c-0.50653,-3.12144 -1.61731,-3.07612 -2,-4c-0.5412,-1.30656 -1,-2 -2,-3c-1,-1 -1,-2 -2,-3c-1,-1 -1.4588,-0.69344 -2,-2c-0.38269,-0.92388 -1,-1 -2,-2c0,0 -1,-1 -2,-1c-1,0 -2,-1 -2,-1c-1,0 -2,0 -4,0c-1,0 -2,0 -3,0c-1,0 -2,0 -3,0c-2,0 -3,0 -4,0c-1,0 -1,-1 -2,-1c-1,0 -1,0 -2,0c-1,0 -2,0 -2,0c-1,0 -2,0 -3,0c-2,0 -2,0 -3,0c-1,0 -1.69342,0.45881 -3,1c-0.92389,0.38268 -0.69342,0.45881 -2,1c-0.92389,0.38268 -1,0 -2,1c0,0 -0.29291,-0.70711 -1,0c-0.70709,0.70711 -0.85272,1.1731 -2,2c-1.81396,1.30745 -3,2 -3,2c-2,2 -2.69342,2.45881 -4,3c-0.92389,0.38268 -1,1 -2,2c-1,1 -1.61731,1.07612 -2,2c-0.5412,1.30656 -2.29291,1.29289 -3,2c-0.70709,0.70711 -0.61731,2.07612 -1,3c-0.5412,1.30656 -1.61731,2.07612 -2,3c-0.5412,1.30656 -1.4588,1.69344 -2,3c-0.38269,0.92388 -0.61731,2.07612 -1,3c-0.5412,1.30656 -1,1 -1,2c0,1 -0.4588,1.69344 -1,3c-0.38269,0.92388 0,2 0,2c0,1 -1,2 -1,3c0,1 0.38269,2.07612 0,3c-0.5412,1.30656 -1,3 -1,4c0,1 -1,3 -1,4c0,2 0,3 0,4c0,1 0,2 0,3c0,1 0,2 0,3c0,0 0,1 0,2c0,1 0,2 0,2c0,1 -0.38269,2.07612 0,3c0.5412,1.30656 1,2 1,3c0,1 1,2 1,3c0,1 0.29291,1.29289 1,2c0.70709,0.70711 0.4588,1.69344 1,3c0.38269,0.92388 0.61731,2.07612 1,3c0.5412,1.30656 1.4588,0.69344 2,2c0.38269,0.92388 1,2 2,3c0,0 1.4588,0.69344 2,2c0.38269,0.92388 0.61731,1.07612 1,2c0.5412,1.30656 2,1 3,2c0,0 1.07611,0.61732 2,1c1.30658,0.5412 2.07611,1.61731 3,2c1.30658,0.5412 1.29291,1.29289 2,2c0.70709,0.70711 2.07611,0.61731 3,1c1.30658,0.5412 2.69342,1.4588 4,2c0.92389,0.38269 2.07611,0.61731 3,1c1.30658,0.5412 3,1 4,2c0,0 1,1 3,1c1,0 2,1 3,1c1,0 2,1 3,1c1,0 2,1 3,1c1,0 2,0 4,0c1,0 3,1 4,1c2,0 4,0 5,0c3,0 5,0 6,0c2,0 4.02673,-0.22975 5,0c2.17627,0.51375 4,1 5,1c2,0 3,0 4,0c2,0 3,1 4,1c2,0 3,0 5,0c1,0 3.15222,-0.76537 5,0c1.30658,0.5412 4,1 6,1c1,0 3,0 5,0c2,0 4,0 6,0c2,0 4,0 6,0c1,0 3,0 4,0c2,0 4,0 6,0c2,0 4.05353,-0.4595 6,0c2.17627,0.51375 4,1 6,1c1,0 3,0 5,0c1,0 2,1 4,1c2,0 3,0 5,0c1,0 3,0 4,0c1,0 2.82373,0.48625 5,1c1.94647,0.4595 4,0 6,0c2,0 4,0 6,0c2,0 5,0 7,0c2,0 4,0 5,0c2,0 4.02673,-0.22975 5,0c2.17627,0.51375 4,1 5,1c2,0 2.69342,0.4588 4,1c1.84778,0.76537 3,0 5,0c1,0 3,1 4,1c1,0 2,0 4,0c1,0 2,0 3,0c0,0 1,0 2,0c1,0 2,0 3,0c1,0 2,0 3,0c0,0 1,0 2,0c0,0 1,0 1,0c1,0 1,0 2,0c0,0 1,0 1,0c0,0 0,0 1,0c0,0 0,0 1,0c0,0 0,0 0,0c1,0 1,0 1,0c0,0 1,0 1,0c0,0 0,0 0,0c1,0 1,0 1,0c0,0 1,0 1,0c0,0 1,0 1,0c0,0 1,0 1,0c0,0 1,0 1,0c1,0 1,-1 1,-1c1,0 1,0 2,0c0,0 1,0 2,0c1,0 2,-1 3,-1c1,0 1.797,-0.2565 3,-1c2.69,-1.66251 3.69342,-1.4588 5,-2c0.92389,-0.38269 3.18604,-0.69255 5,-2c1.14728,-0.8269 2.85272,-2.1731 4,-3c1.81396,-1.30745 3.18604,-1.69255 5,-3c1.14728,-0.8269 2.41888,-2.41885 4,-4c1.58112,-1.58115 4,-3 5,-4c2,-2 3.1731,-3.85273 4,-5c1.30743,-1.814 2.34619,-3.70546 4,-6c1.30743,-1.814 1.77026,-4.02675 2,-5c0.51373,-2.17625 2,-4 2,-6c0,-1 0.77026,-3.02675 1,-4c0.51373,-2.17625 1,-3 1,-4c0,-1 0,-2 0,-3c0,-1 0,-2 0,-3c0,-1 0,-2 0,-3c0,-1 -1,-2 -1,-2c-1,-1 -2,-2 -2,-2c-1,-1 -1.69342,-1.4588 -3,-2c-0.92389,-0.38268 -1.29291,-0.29289 -2,-1c-0.70709,-0.70711 -2.07611,0.38268 -3,0c-1.30658,-0.5412 -2,-1 -3,-1c-1,0 -1.29291,-0.29289 -2,-1c-1.41418,-1.41422 -2,0 -3,0c-1,0 -1,0 -2,0c-1,0 -2,0 -3,0c-2,0 -3,0 -4,0c0,0 -1,0 -2,0c-2,0 -3,0 -4,0c-1,0 -2,0 -2,0c-1,1 -3,1 -3,1c-1,1 -0.69342,1.4588 -2,2c-0.92389,0.38268 -1,1 -2,2c-1,1 -1.4588,0.69344 -2,2c-0.38269,0.92388 -1,2 -1,3c0,1 -0.61731,2.07612 -1,3c-0.5412,1.30656 -1,2 -1,3c0,1 0,2 0,4c0,1 0,2 0,4c0,1 0,3 0,4c0,1 0,2 0,4c0,1 0,2 0,3c0,0 0.4588,0.69344 1,2c0.38269,0.92388 -0.38269,2.07612 0,3c0.5412,1.30656 1,1 1,2c0,1 1,2 1,3c0,0 1,1 1,1c0,1 0.29291,1.29289 1,2c0.70709,0.70711 1,1 1,1c1,1 1.29291,0.29289 2,1c0.70709,0.70711 1.29291,0.29289 2,1c0.70709,0.70711 1,1 2,2c0,0 0.69342,0.4588 2,1c0.92389,0.38269 0.69342,0.4588 2,1c0.92389,0.38269 1.29291,0.29289 2,1c0.70709,0.70711 1.69342,0.4588 3,1c0.92389,0.38269 1,0 2,1c0,0 1.07611,-0.38269 2,0c1.30658,0.5412 2,1 3,1c1,0 3,1 4,1c2,0 5,0 6,0c2,0 4,0 6,0c2,0 4,0 6,0c2,0 3,0 5,0c2,0 3,0 5,0c2,0 4,0 6,0c2,0 4,0 5,0c2,0 4,0 6,0c1,0 3,0 4,0c2,0 3,0 4,0c2,0 2.69348,0.4588 4,1c0.92383,0.38269 3,0 3,0c2,0 3,0 4,0c1,0 2,0 3,0c1,0 2,0 3,0c2,0 3,0 4,0c1,0 2,0 3,0c2,0 3,0 5,0c2,0 3,0 5,0c2,0 3,0 5,0c1,0 3,0 5,0c1,0 3,0 4,0c1,0 2,1 3,1c1,0 1,0 2,0c0,0 1,0 1,0c0,0 0,0 1,0c0,0 0,0 1,0c0,0 0,-1 0,-1c1,0 1,-1 1,-1l0,0l0,0l0,-1" id="svg_3" stroke-width="5" stroke="#fff7e5" fill="none"/>
  <polyline stroke-linecap="round" id="svg_4" points="1085.5,141.5 1085.5,141.5 1086.5,141.5 1086.5,141.5 1087.5,141.5 1088.5,141.5 1089.5,141.5 1091.5,141.5 1092.5,141.5 1094.5,141.5 1096.5,141.5 1097.5,141.5 1100.5,141.5 1101.5,141.5 1104.5,141.5 1110.5,141.5 1112.5,141.5 1115.5,141.5 1117.5,141.5 1119.5,141.5 1122.5,141.5 1124.5,141.5 1126.5,141.5 1127.5,141.5 1128.5,141.5 1130.5,141.5 1131.5,141.5 1133.5,141.5 1134.5,141.5 1136.5,141.5 1137.5,141.5 1138.5,141.5 1139.5,141.5 1141.5,141.5 1143.5,141.5 1144.5,141.5 1145.5,141.5 1146.5,141.5 1147.5,141.5 1148.5,141.5 1149.5,141.5 1151.5,141.5 1152.5,141.5 1153.5,141.5 1154.5,141.5 1155.5,141.5 1156.5,141.5 1157.5,142.5 1159.5,142.5 1161.5,142.5 1162.5,142.5 1164.5,142.5 1166.5,142.5 1168.5,143.5 1169.5,143.5 1171.5,143.5 1173.5,143.5 1175.5,143.5 1176.5,143.5 1178.5,143.5 1179.5,143.5 1181.5,143.5 1183.5,143.5 1185.5,143.5 1187.5,143.5 1188.5,143.5 1190.5,143.5 1192.5,143.5 1194.5,143.5 1195.5,143.5 1197.5,143.5 1198.5,143.5 1200.5,143.5 1202.5,144.5 1204.5,144.5 1206.5,144.5 1208.5,144.5 1209.5,144.5 1212.5,144.5 1213.5,144.5 1214.5,144.5 1215.5,144.5 1217.5,144.5 1218.5,144.5 1219.5,144.5 1220.5,144.5 1221.5,144.5 1222.5,144.5 1223.5,145.5 1224.5,145.5 1225.5,145.5 1225.5,145.5 1226.5,145.5 1227.5,145.5 1228.5,145.5 1229.5,145.5 1230.5,145.5 1231.5,146.5 1232.5,146.5 1232.5,146.5 1233.5,146.5 1234.5,146.5 1235.5,146.5 1235.5,146.5 1236.5,146.5 1237.5,146.5 1237.5,146.5 1238.5,146.5 1239.5,147.5 1239.5,147.5 1240.5,147.5 1241.5,147.5 1241.5,147.5 1242.5,147.5 1242.5,147.5 1243.5,147.5 1244.5,147.5 1245.5,147.5 1246.5,147.5 1247.5,147.5 1248.5,147.5 1249.5,147.5 1250.5,147.5 1251.5,147.5 1252.5,147.5 1252.5,147.5 1253.5,147.5 1254.5,147.5 1255.5,147.5 1255.5,147.5 1256.5,147.5 1257.5,147.5 1258.5,147.5 1258.5,147.5 1259.5,147.5 1260.5,147.5 1260.5,147.5 1261.5,147.5 1262.5,147.5 1262.5,147.5 1263.5,146.5 1263.5,146.5 1264.5,146.5 1264.5,146.5 1264.5,146.5 1264.5,146.5 1265.5,146.5 1265.5,146.5 1265.5,146.5 1266.5,146.5 1266.5,146.5 1266.5,146.5 1266.5,146.5 1266.5,146.5 1267.5,146.5 1267.5,146.5 1267.5,146.5 1268.5,146.5 1268.5,146.5 1269.5,146.5 1269.5,146.5 1270.5,146.5 1270.5,146.5 1270.5,146.5 1270.5,146.5 1271.5,146.5 1271.5,146.5 1271.5,146.5 1272.5,146.5 1272.5,146.5 1272.5,146.5 1272.5,146.5 1273.5,146.5 1273.5,146.5 1273.5,146.5 1273.5,146.5 1273.5,146.5 1273.5,146.5 1274.5,146.5 1274.5,146.5 1274.5,146.5 1275.5,145.5 1275.5,145.5 1276.5,145.5 1277.5,145.5 1278.5,145.5 1279.5,144.5 1280.5,144.5 1282.5,143.5 1283.5,143.5 1284.5,143.5 1285.5,142.5 1286.5,142.5 1287.5,141.5 1289.5,141.5 1290.5,140.5 1291.5,140.5 1292.5,139.5 1293.5,138.5 1294.5,138.5 1295.5,137.5 1296.5,137.5 1297.5,136.5 1298.5,136.5 1299.5,135.5 1300.5,134.5 1301.5,133.5 1302.5,132.5 1302.5,131.5 1303.5,130.5 1304.5,129.5 1305.5,127.5 1305.5,126.5 1306.5,125.5 1306.5,124.5 1307.5,123.5 1307.5,122.5 1308.5,120.5 1308.5,119.5 1309.5,118.5 1309.5,116.5 1310.5,115.5 1310.5,114.5 1310.5,112.5 1311.5,111.5 1311.5,109.5 1311.5,108.5 1311.5,106.5 1311.5,105.5 1311.5,103.5 1311.5,102.5 1311.5,100.5 1311.5,99.5 1311.5,97.5 1311.5,96.5 1311.5,95.5 1311.5,94.5 1311.5,93.5 1311.5,92.5 1311.5,91.5 1310.5,90.5 1310.5,89.5 1310.5,88.5 1309.5,87.5 1309.5,86.5 1308.5,85.5 1308.5,84.5 1307.5,83.5 1307.5,81.5 1306.5,80.5 1306.5,79.5 1305.5,77.5 1305.5,76.5 1304.5,75.5 1304.5,74.5 1303.5,73.5 1302.5,72.5 1302.5,71.5 1302.5,71.5 1301.5,70.5 1300.5,69.5 1300.5,69.5 1299.5,68.5 1298.5,67.5 1297.5,67.5 1297.5,66.5 1296.5,66.5 1295.5,66.5 1295.5,65.5 1294.5,65.5 1293.5,64.5 1292.5,64.5 1291.5,64.5 1289.5,64.5 1288.5,63.5 1287.5,63.5 1286.5,63.5 1284.5,63.5 1282.5,63.5 1281.5,63.5 1280.5,63.5 1279.5,63.5 1278.5,63.5 1277.5,63.5 1276.5,63.5 1275.5,63.5 1274.5,63.5 1273.5,63.5 1272.5,64.5 1271.5,64.5 1271.5,64.5 1270.5,64.5 1270.5,65.5 1269.5,65.5 1268.5,65.5 1268.5,66.5 1267.5,66.5 1267.5,66.5 1266.5,66.5 1265.5,67.5 1264.5,67.5 1264.5,68.5 1263.5,68.5 1263.5,68.5 1262.5,69.5 1262.5,70.5 1261.5,70.5 1260.5,71.5 1260.5,71.5 1259.5,72.5 1259.5,73.5 1258.5,73.5 1258.5,74.5 1257.5,75.5 1257.5,76.5 1256.5,76.5 1255.5,78.5 1255.5,79.5 1254.5,80.5 1253.5,81.5 1253.5,82.5 1252.5,83.5 1252.5,84.5 1251.5,86.5 1251.5,87.5 1251.5,88.5 1251.5,90.5 1250.5,91.5 1250.5,92.5 1250.5,94.5 1250.5,95.5 1250.5,96.5 1250.5,97.5 1250.5,98.5 1250.5,100.5 1250.5,101.5 1250.5,102.5 1250.5,103.5 1250.5,104.5 1250.5,105.5 1250.5,106.5 1250.5,107.5 1251.5,109.5 1251.5,110.5 1251.5,111.5 1252.5,113.5 1252.5,114.5 1252.5,115.5 1253.5,116.5 1253.5,118.5 1254.5,119.5 1254.5,120.5 1255.5,121.5 1255.5,122.5 1256.5,123.5 1256.5,124.5 1257.5,124.5 1257.5,125.5 1257.5,126.5 1258.5,127.5 1259.5,128.5 1259.5,128.5 1260.5,129.5 1260.5,129.5 1261.5,130.5 1262.5,131.5 1263.5,131.5 1263.5,132.5 1264.5,132.5 1265.5,133.5 1266.5,133.5 1267.5,134.5 1268.5,134.5 1269.5,135.5 1270.5,135.5 1271.5,136.5 1272.5,136.5 1273.5,136.5 1274.5,137.5 1275.5,137.5 1276.5,137.5 1277.5,138.5 1278.5,138.5 1279.5,138.5 1279.5,139.5 1280.5,139.5 1281.5,139.5 1282.5,140.5 1283.5,140.5 1284.5,140.5 1285.5,141.5 1285.5,141.5 1286.5,141.5 1287.5,142.5 1288.5,142.5 1290.5,142.5 1291.5,143.5 1292.5,143.5 1293.5,143.5 1295.5,143.5 1296.5,144.5 1297.5,144.5 1298.5,144.5 1299.5,144.5 1301.5,145.5 1302.5,145.5 1303.5,145.5 1304.5,145.5 1305.5,146.5 1306.5,146.5 1307.5,146.5 1309.5,146.5 1309.5,146.5 1310.5,146.5 1311.5,147.5 1312.5,147.5 1312.5,147.5 1313.5,147.5 1314.5,147.5 1315.5,147.5 1316.5,148.5 1317.5,148.5 1318.5,148.5 1318.5,148.5 1319.5,148.5 1321.5,148.5 1322.5,149.5 1323.5,149.5 1324.5,149.5 1325.5,149.5 1326.5,149.5 1327.5,149.5 1328.5,149.5 1329.5,149.5 1330.5,149.5 1331.5,149.5 1333.5,149.5 1334.5,149.5 1335.5,150.5 1336.5,150.5 1338.5,150.5 1339.5,150.5 1340.5,150.5 1341.5,150.5 1342.5,150.5 1343.5,150.5 1344.5,150.5 1345.5,150.5 1346.5,151.5 1347.5,151.5 1348.5,151.5 1349.5,151.5 1350.5,151.5 1351.5,151.5 1351.5,151.5 1353.5,151.5 1354.5,151.5 1355.5,151.5 1355.5,151.5 1356.5,151.5 1357.5,151.5 1358.5,151.5 1358.5,151.5 1359.5,151.5 1363.5,149.5 1356.5,421.5 1342.5,423.5 1327.5,423.5 1314.5,425.5 1301.5,426.5 1288.5,426.5 1276.5,428.5 1262.5,431.5 1249.5,434.5 1235.5,437.5 1220.5,441.5 1207.5,445.5 1193.5,449.5 1180.5,453.5 1167.5,457.5 1155.5,462.5 1131.5,470.5 1121.5,473.5 1109.5,477.5 1104.5,479.5 1094.5,482.5 1086.5,484.5 1078.5,486.5 1070.5,487.5 1064.5,488.5 1059.5,489.5 1053.5,489.5 1048.5,490.5 1044.5,490.5 1042.5,491.5 571.5,490.5 482.5,482.5 402.5,471.5 373.5,463.5 318.5,450.5 301.5,443.5 268.5,431.5 261.5,427.5 244.5,418.5 242.5,416.5 234.5,410.5 231.5,407.5 227.5,400.5 227.5,394.5 233.5,388.5 233.5,387.5 232.5,384.5 230.5,381.5 227.5,378.5 222.5,372.5 215.5,366.5 206.5,359.5 195.5,352.5 174.5,339.5 159.5,333.5 150.5,329.5 134.5,322.5 116.5,314.5 101.5,307.5 584.5,473.5 584.5,470.5 585.5,468.5 586.5,466.5 587.5,464.5 588.5,462.5 588.5,459.5 589.5,457.5 589.5,455.5 590.5,453.5 590.5,451.5 591.5,450.5 591.5,450.5 591.5,449.5 591.5,448.5 591.5,448.5 591.5,447.5 591.5,447.5 591.5,446.5 591.5,445.5 591.5,442.5 591.5,438.5 591.5,433.5 587.5,399.5 585.5,391.5 584.5,385.5 580.5,373.5 577.5,363.5 575.5,357.5 572.5,348.5 568.5,338.5 566.5,329.5 563.5,321.5 561.5,314.5 559.5,306.5 557.5,298.5 556.5,291.5 556.5,285.5 555.5,279.5 555.5,276.5 555.5,274.5 554.5,273.5 " opacity="NaN" stroke-width="5" stroke="#fff7e5" fill="none"/>
 </g>
</svg>